<svg width="60" height="100" viewBox="0 0 60 100" fill="none" xmlns="http://www.w3.org/2000/svg">
<path d="M58.7465 50C58.395 50.1596 57.9658 50.3599 57.473 50.6004C56.037 51.3012 54.0578 52.344 51.8822 53.7139C47.541 56.4473 42.372 60.5108 39.202 65.7941C36.0455 71.055 33.6242 79.6143 31.9946 86.8038C31.1773 90.4092 30.5552 93.6889 30.1374 96.0672C30.0888 96.3437 30.043 96.608 30 96.8592C29.957 96.608 29.9112 96.3437 29.8626 96.0672C29.4448 93.6889 28.8227 90.4092 28.0054 86.8038C26.3758 79.6143 23.9545 71.055 20.798 65.7941C17.628 60.5108 12.459 56.4473 8.11783 53.7139C5.94219 52.344 3.96303 51.3012 2.52702 50.6004C2.03417 50.3599 1.60502 50.1596 1.25354 50C1.60502 49.8404 2.03417 49.6401 2.52702 49.3996C3.96303 48.6988 5.94219 47.656 8.11783 46.2861C12.459 43.5527 17.628 39.4892 20.798 34.2059C23.9545 28.945 26.3758 20.3857 28.0054 13.1962C28.8227 9.59081 29.4448 6.31107 29.8626 3.93275C29.9112 3.65632 29.957 3.39204 30 3.14082C30.043 3.39204 30.0888 3.65632 30.1374 3.93275C30.5552 6.31107 31.1773 9.59081 31.9946 13.1962C33.6242 20.3857 36.0455 28.945 39.202 34.2059C42.372 39.4892 47.541 43.5527 51.8822 46.2861C54.0578 47.656 56.037 48.6988 57.473 49.3996C57.9658 49.6401 58.395 49.8404 58.7465 50Z" fill="#95FF00"/>
<path d="M58.7465 50C58.395 50.1596 57.9658 50.3599 57.473 50.6004C56.037 51.3012 54.0578 52.344 51.8822 53.7139C47.541 56.4473 42.372 60.5108 39.202 65.7941C36.0455 71.055 33.6242 79.6143 31.9946 86.8038C31.1773 90.4092 30.5552 93.6889 30.1374 96.0672C30.0888 96.3437 30.043 96.608 30 96.8592C29.957 96.608 29.9112 96.3437 29.8626 96.0672C29.4448 93.6889 28.8227 90.4092 28.0054 86.8038C26.3758 79.6143 23.9545 71.055 20.798 65.7941C17.628 60.5108 12.459 56.4473 8.11783 53.7139C5.94219 52.344 3.96303 51.3012 2.52702 50.6004C2.03417 50.3599 1.60502 50.1596 1.25354 50C1.60502 49.8404 2.03417 49.6401 2.52702 49.3996C3.96303 48.6988 5.94219 47.656 8.11783 46.2861C12.459 43.5527 17.628 39.4892 20.798 34.2059C23.9545 28.945 26.3758 20.3857 28.0054 13.1962C28.8227 9.59081 29.4448 6.31107 29.8626 3.93275C29.9112 3.65632 29.957 3.39204 30 3.14082C30.043 3.39204 30.0888 3.65632 30.1374 3.93275C30.5552 6.31107 31.1773 9.59081 31.9946 13.1962C33.6242 20.3857 36.0455 28.945 39.202 34.2059C42.372 39.4892 47.541 43.5527 51.8822 46.2861C54.0578 47.656 56.037 48.6988 57.473 49.3996C57.9658 49.6401 58.395 49.8404 58.7465 50Z" fill="#95FF00"/>
<path d="M58.7465 50C58.395 50.1596 57.9658 50.3599 57.473 50.6004C56.037 51.3012 54.0578 52.344 51.8822 53.7139C47.541 56.4473 42.372 60.5108 39.202 65.7941C36.0455 71.055 33.6242 79.6143 31.9946 86.8038C31.1773 90.4092 30.5552 93.6889 30.1374 96.0672C30.0888 96.3437 30.043 96.608 30 96.8592C29.957 96.608 29.9112 96.3437 29.8626 96.0672C29.4448 93.6889 28.8227 90.4092 28.0054 86.8038C26.3758 79.6143 23.9545 71.055 20.798 65.7941C17.628 60.5108 12.459 56.4473 8.11783 53.7139C5.94219 52.344 3.96303 51.3012 2.52702 50.6004C2.03417 50.3599 1.60502 50.1596 1.25354 50C1.60502 49.8404 2.03417 49.6401 2.52702 49.3996C3.96303 48.6988 5.94219 47.656 8.11783 46.2861C12.459 43.5527 17.628 39.4892 20.798 34.2059C23.9545 28.945 26.3758 20.3857 28.0054 13.1962C28.8227 9.59081 29.4448 6.31107 29.8626 3.93275C29.9112 3.65632 29.957 3.39204 30 3.14082C30.043 3.39204 30.0888 3.65632 30.1374 3.93275C30.5552 6.31107 31.1773 9.59081 31.9946 13.1962C33.6242 20.3857 36.0455 28.945 39.202 34.2059C42.372 39.4892 47.541 43.5527 51.8822 46.2861C54.0578 47.656 56.037 48.6988 57.473 49.3996C57.9658 49.6401 58.395 49.8404 58.7465 50Z" stroke="black"/>
</svg>
